<?xml version="1.0" encoding="utf-8"?>
<!-- Generator: Adobe Illustrator 21.1.0, SVG Export Plug-In . SVG Version: 6.00 Build 0)  -->
<svg version="1.1" id="Layer_1" xmlns="http://www.w3.org/2000/svg" xmlns:xlink="http://www.w3.org/1999/xlink" x="0px" y="0px"
	 viewBox="0 0 800 800" style="enable-background:new 0 0 800 800;" xml:space="preserve">
<style type="text/css">
	.st0{fill:#4A555C;}
</style>
<path class="st0" d="M755.8,0H44.2C19.8,0,0,19.8,0,44.2v711.7C0,780.2,19.8,800,44.2,800h383.2V490.2H323.1V369.5h104.3v-89
	c0-103.3,63.1-159.6,155.3-159.6c44.2,0,82.1,3.3,93.2,4.8v108l-63.9,0c-50.1,0-59.8,23.8-59.8,58.8v77.1h119.6L656,490.2H552V800
	h203.9c24.4,0,44.2-19.8,44.2-44.2V44.2C800,19.8,780.2,0,755.8,0z"/>
</svg>
