<?xml version="1.0" encoding="utf-8"?>
<!-- Generator: Adobe Illustrator 21.1.0, SVG Export Plug-In . SVG Version: 6.00 Build 0)  -->
<svg version="1.1" id="YouTube_Icon" xmlns="http://www.w3.org/2000/svg" xmlns:xlink="http://www.w3.org/1999/xlink" x="0px"
	 y="0px" viewBox="0 0 800 562.7" style="enable-background:new 0 0 800 562.7;" xml:space="preserve">
<style type="text/css">
	.st0{fill:#4A555C;}
</style>
<path class="st0" d="M792,121.4c0,0-7.8-55.1-31.8-79.4c-30.4-31.9-64.5-32-80.2-33.9C568.1,0,400.2,0,400.2,0h-0.3
	c0,0-167.9,0-279.9,8.1c-15.6,1.9-49.7,2-80.2,33.9C15.8,66.3,8,121.4,8,121.4s-8,64.7-8,129.5v60.7C0,376.3,8,441,8,441
	s7.8,55.1,31.8,79.4c30.4,31.9,70.4,30.9,88.2,34.2c64,6.1,272,8,272,8s168.1-0.3,280.1-8.3c15.6-1.9,49.7-2,80.2-33.9
	c24-24.3,31.8-79.4,31.8-79.4s8-64.7,8-129.5v-60.7C800,186.1,792,121.4,792,121.4z M317.4,385.1l0-224.8l216.2,112.8L317.4,385.1z"
	/>
</svg>
