<?xml version="1.0" encoding="utf-8"?>
<!-- Generator: Adobe Illustrator 21.1.0, SVG Export Plug-In . SVG Version: 6.00 Build 0)  -->
<svg version="1.1" id="Layer_1" xmlns="http://www.w3.org/2000/svg" xmlns:xlink="http://www.w3.org/1999/xlink" x="0px" y="0px"
	 viewBox="0 0 1000 206.9" style="enable-background:new 0 0 1000 206.9;" xml:space="preserve">
<style type="text/css">
	.st0{fill:#F00000;}
	.st1{fill:#FFFFFF;}
	.st2{fill:#FFD200;}
	.st3{fill:#003C96;}
</style>
<g>
	<g>
		<g>
			<path d="M266.5,105.1c-12.1-4.9-19-13.5-28.7-28.7c-8.1-12.7-17.6-35.6-29.9-46.7c-6.3-5.7-13.2-9.5-21.3-12.1l-8,8.1
				c0.4,0.2,0.8,0.3,1.2,0.4c17.8,6.6,24.2,12.3,34.6,29.3c9.9,16,21,37.9,38.6,50.5c17.6,12.6,37.1,8.3,47.1,7.1
				c7.8-0.9,22.4-4.2,28.5-5.6l3.2-3l4.5-4.2c-5.7,1.5-14.7,3.6-23.6,5.1C299.3,107.4,279.9,110.4,266.5,105.1"/>
			<path d="M184.8,168.6c-16.7-19.4-18.4-26-27.8-39.4c-9.4-13.4-19.7-28.6-53.5-32.5c-37.9-4.4-80.4-1.3-90.3-0.5h-0.2L0,108.3
				c54.4-3,108.9-5.1,129.4,9.8c20.5,15,23,30.5,42.1,54.9c19.1,24.4,30.9,33.8,51.8,33.8l13.6-12.9
				C214.6,200.4,200.7,187.2,184.8,168.6"/>
			<path d="M217.7,168.3c-9.4-6.9-18.1-16.5-26.9-29.3c-8.8-12.9-16.9-26.1-29.9-41.5c-13-15.5-31.9-19.9-47-22
				c-14.8-2.1-30.5-4-77.3-1.6L25.2,84.6l-0.8,0.7c33.7-1.9,59.5-2.8,85.8,0.6c27.4,3.5,37.8,10.1,52.6,32
				c14.8,21.9,24.4,37,36.9,50.3c12.4,13.2,29.4,20.3,49.5,14.2l11.8-11.2c-2.6,0.8-5.1,1.4-7.6,1.7
				C241.4,174.3,227.1,175.2,217.7,168.3"/>
			<path d="M292.5,94.5c-28.7,0.2-38.8-24-45.1-35c-6.3-11-12-24.2-22.8-40.3c-0.4-0.5-0.7-1-1.1-1.6c-0.1-0.2-0.2-0.3-0.4-0.5
				c-0.3-0.3-0.5-0.7-0.8-1c-0.2-0.2-0.3-0.3-0.4-0.5c-0.2-0.3-0.5-0.6-0.7-0.8c-0.2-0.2-0.3-0.3-0.5-0.5c-0.2-0.3-0.5-0.5-0.7-0.8
				c-0.2-0.2-0.3-0.3-0.5-0.5c-0.3-0.2-0.5-0.5-0.8-0.7c-0.2-0.1-0.3-0.3-0.5-0.4c-0.3-0.2-0.6-0.5-0.8-0.7
				c-0.2-0.1-0.3-0.3-0.5-0.4c-0.3-0.2-0.6-0.5-1-0.7c-0.1-0.1-0.3-0.2-0.4-0.3c-0.4-0.3-0.9-0.6-1.4-0.9c0,0,0,0,0,0
				c-0.5-0.3-1-0.6-1.5-0.8c-0.1-0.1-0.2-0.1-0.3-0.2c-0.4-0.2-0.8-0.4-1.2-0.6c-0.2-0.1-0.3-0.1-0.5-0.2c-0.4-0.2-0.7-0.3-1.1-0.5
				c-0.2-0.1-0.4-0.1-0.5-0.2c-0.4-0.1-0.7-0.3-1.1-0.4c-0.2-0.1-0.4-0.1-0.6-0.2c-0.4-0.1-0.7-0.3-1.1-0.4
				c-0.2-0.1-0.4-0.1-0.6-0.2c-0.4-0.1-0.8-0.2-1.2-0.4c-0.2,0-0.4-0.1-0.5-0.2c-0.4-0.1-0.9-0.2-1.3-0.3c-0.2,0-0.3-0.1-0.4-0.1
				c-0.6-0.1-1.1-0.3-1.7-0.4c0,0-0.1,0-0.1,0l-7.5,7.6c11,2.4,19.5,5,29,21C232.2,50,242,67.8,246.3,74.9
				c4.3,7.1,13.2,20.3,26.7,23.7c13.5,3.4,24.7,2.5,37.9,0.7c8.8-1.2,22.4-3.5,31.8-5.5l8.1-7.6C350.8,86.2,321.3,94.3,292.5,94.5"
				/>
			<path d="M227.7,120.4c-14.9-17.2-27.5-37.3-38.5-49.7c-11-12.5-26.9-22.1-48.4-26.2c-20.7-4-56.4-3.7-70.5-2.3l-3,2.9l-4.6,4.3
				c18.2-0.9,41.8-0.5,58.6,1.1c17.7,1.7,35.1,4.2,50.8,18.2c15.6,14.1,25.3,28.8,38,46.5c12.7,17.7,26.4,29,42.4,30.8
				c11.9,1.3,27.6-0.6,37.7-2.5l4-3.8l6.8-6.5c-10.7,2.9-23.2,4.5-33.4,4.6C255.8,138,242.5,137.6,227.7,120.4"/>
			<path d="M219.5,142.1c-15.3-16.5-36-51.1-48.2-62.3c-15.5-14.2-29.7-19.8-60.4-22.7c-21.3-2-43.6-1.7-55.2-1.4l-3.3,3.1l-6.8,6.4
				c34.8-1.5,50.5-2,77.4,2.1c29.1,4.5,41.5,17.4,53.3,33.5c11.8,16,22,32.9,33,45.1c11,12.2,16.9,19.1,42.7,19
				c13.2-0.1,18.2-2.6,18.2-2.6l10-9.5c-0.2,0-8,1.9-15.7,2.6C257.6,156.1,234.8,158.6,219.5,142.1"/>
			<path d="M262.6,119.7c-16-2.9-29.8-18.7-40.1-35.8c-10.3-17.2-25.6-41.5-51.1-50.9l-7.8,8c8.7,2.9,16.1,6.8,21.3,11.9
				c10.4,10,17.4,18.4,30.4,36.9c13,18.5,24.2,36.9,46.4,38.8c18.8,1.6,38.2-1.7,49.3-4.7l8.3-7.8l0.7-0.7
				c-2.7,0.7-6.4,1.5-11.5,2.4C293.9,120.4,278.6,122.6,262.6,119.7"/>
		</g>
		<g>
			<path class="st0" d="M172.8,0.8c-23.7-1.3-41.5-1-58.5,0.6L85.6,27.9l-7.7,7.3c20.8-1.6,42.4-1.3,58.8,0.2
				c9,0.8,18.6,2.9,27.1,5.7l7.8-8.1l28.9-29.1C192.4,2.1,183.6,1.4,172.8,0.8"/>
			<path class="st1" d="M167.7,17.7c-8.1,8.2-28.1,13.9-43.9,13c-14.7-0.8-20.7-7.1-13.9-14.4c6.8-7.4,24.8-13.5,40.9-13.6
				C168.1,2.7,176.1,9.4,167.7,17.7"/>
			<polygon class="st2" points="120.3,2.8 120.4,4.6 124.2,4.8 119.9,6.4 118.7,8.3 116,7.4 111.7,8.4 114.1,6.4 112.6,4.9 
				116.8,4.6 			"/>
			<polygon class="st2" points="99.7,24.5 99.7,26.8 104.1,27.3 99.1,28.8 97.7,31.3 94.6,30 89.5,30.9 92.5,28.6 90.7,26.8 
				95.6,26.6 			"/>
			<polygon class="st2" points="186.7,4.4 186.7,6.5 191.7,7.1 186,8.3 184.4,10.6 180.9,9.3 175.3,9.9 178.5,7.9 176.6,6.2 
				182.1,6.2 			"/>
			<polygon class="st2" points="164.3,27.9 164.2,30.2 169.3,31.4 163.3,32.3 161.5,34.6 158,32.9 152,33.2 155.6,31.2 153.7,29.1 
				159.3,29.6 			"/>
			<g>
				<path class="st3" d="M124.6,26.8l1.5,1.1c0,0,0,0.9,0.3,1.1c0.4,0.2,0.4,0.5,1.5-0.1c1.1-0.5,1.8-1.1,2.1-1.3
					c0.4-0.3,0.1-0.1,1.3-0.5c1.1-0.4,1.8-0.5,2.6-1.1c0.9-0.7,0.5,0,1.3-0.9c0.9-1,1.3-1.6,2.3-1.8c1-0.3,3-0.7,4.1-0.8
					c1.1-0.1,3.6,0.5,4.4,0c0.7-0.6,1.8-1.9,2.8-2.2c1-0.4,2.8-1.3,3.7-2c0.9-0.7,2.1-1.6,2.6-1.9c0.6-0.3,2.4-1.1,2.4-1.1
					s3.7-1.8,4.8-1.9c1.2,0,1.7-0.8,1.8-1.2c0.1-0.3-0.8-0.7-1.3-0.8c-0.5,0-1.2-0.2-1.4-0.5c-0.4-0.4-2.2-0.9-2.2-0.9
					s-1.3,0.8-2.4,0c-1.2-1-1-1.6-1.8-1.7c-0.7-0.1-0.5,0-1.4,0c-1,0-1.5,0-2.2,0.2c-0.7,0.2,0.1,1.4-1.8,0.6
					c-1.9-0.8-1.9-1.7-2.2-2.1c-0.4-0.4-0.5-0.1-1.4-0.3c-0.8-0.2-1.1-0.3-1.5,0c-0.4,0.2-2.1,1.4-2.4,1.3c-0.4-0.2-2.1-1.1-1.4-1.5
					c0.8-0.4,1.5-1.5,1.1-1.4c-0.3,0-1.3,0.4-1.9,0.5c-0.5,0.1-1.6,0.1-1.8,0.2c-0.2,0.1-1.8,0.4-2,0.7c-0.2,0.2,0.9,0.2-0.2,0.9
					c-1,0.7-2,1.3-2.9,0.6c-0.9-0.6-1-0.8-1.6-0.7c-0.6,0.2-1.7,0.8-2.3,1.1c-0.6,0.4-1,0.6-1,0.6s0-0.2-0.5,0.7
					c-0.4,0.8-0.8,1.3-1.5,1.6c-0.7,0.2-0.9,0.4-2.4,0.8c-1.5,0.3-2,0.8-2.8,1.2c-0.7,0.3-1.1,0.7-0.9,1.2c0.3,0.6,0.2,1,0.7,0.7
					c0.5-0.3,0.6-0.7,0.9-0.5c0.4,0.1,0.5,1.2,1.1,1c0.6-0.4,0.4-0.1,1.7-0.9c1.3-0.8,0.8-0.6,1.7-0.4c1,0.2,0.9,0.6,1.2,1.1
					c0.4,0.5,0.9,0.8,1.4,1c0.4,0,0,0.5,1,1.4l1,0.9c0,0-0.4,0.7-0.8,1.1c-0.3,0.5-1.5,1.1-1.2,1.6c0.3,0.5,1,0.8,1.4,1.3
					c0.4,0.5,0.4,1.6,0.4,1.6s-2,1.2-2.4,1.2C128.3,25.7,125,26.6,124.6,26.8"/>
				<path class="st3" d="M150.9,5.2c-0.6,0.4-2.8,1-2.5,1.6c0.3,0.6,1,1.5,1.6,1.4c0.6-0.2,1.1,0.3,1.4-0.7
					C151.7,6.5,150.9,5.2,150.9,5.2"/>
			</g>
		</g>
	</g>
	<g>
		<path d="M425,157.9h3.6h8.8l-10.1-27.4l-11.1,27.4H425z M425,101h3.6h13.7l36.3,93.3H451l-6.4-17.4h-15.9H425h-16.7l-7.2,17.4
			h-27.8l40.7-93.3H425z"/>
		<path d="M519.4,99.7c0.6,0,1.2,0,1.8,0L519.4,99.7z M517.6,99.7c0.6,0,1.2,0,1.8,0H517.6z M519.4,173.5
			c13.7,0,23.8-10.5,23.8-25.6c0-15.4-10.1-25.8-23.7-25.8c-13.8,0.1-23.8,10.5-23.8,25.8C495.7,163,505.7,173.5,519.4,173.5
			 M521.2,196c-0.6,0-1.2,0-1.7,0L521.2,196L521.2,196z M555.5,112.8c9.6,9.2,14.6,21.1,14.6,35.1c0,13.7-5,25.7-14.6,34.7
			c-9,8.6-20.5,13.1-34.3,13.4l-1.7,0c-14.6,0-26.5-4.5-35.9-13.5c-9.6-9-14.6-21.1-14.6-34.7c0-14,5-25.9,14.6-35.1
			c9-8.5,20.3-12.7,34-13.1l1.8,0h1.8C535,100,546.5,104.3,555.5,112.8"/>
		<path d="M628.1,101l0.8,0h0.4L628.1,101z M628.1,138.2c6.2-0.2,11.5-0.7,11.5-8.3c0-6.9-4.8-8.2-10.3-8.4h-9.2v16.8H628.1z
			 M666.3,129.6c0,22.2-16.4,28.4-34.7,29.5l-1.8,0.1h-0.4l-1.4,0c-0.4,0-0.7,0-1.1,0h-6.9v34.9h-26V101l33.9,0l1.2,0h2.4
			C649.8,101.8,666.3,107.3,666.3,129.6"/>
		<path d="M697.3,157.9h3.6h8.8l-10.1-27.4l-11.1,27.4H697.3z M697.3,101h3.6h13.7l36.3,93.3h-27.6l-6.4-17.4h-15.9h-3.6h-16.7
			l-7.2,17.4h-27.8l40.7-93.3H697.3z"/>
		<path d="M947.6,99.7c0.6,0,1.2,0,1.7,0H947.6z M949.4,173.5c13.8,0,23.8-10.5,23.8-25.6c0-15.3-10.1-25.8-23.8-25.8
			c-13.8,0-23.8,10.5-23.8,25.8C925.6,163,935.6,173.5,949.4,173.5 M947.6,196h1.7C948.8,196,948.2,196,947.6,196L947.6,196z
			 M951.3,196c-0.6,0-1.2,0-1.8,0L951.3,196L951.3,196z M985.3,112.8c9.5,9.2,14.7,21.1,14.7,35.1c0,13.7-5.1,25.7-14.7,34.7
			c-8.9,8.6-20.4,13.1-34.1,13.4l-1.8,0h-1.8c-13.8-0.4-25.1-4.9-34.2-13.5c-9.6-9-14.7-21.1-14.7-34.7c0-14,5.1-25.9,14.7-35.1
			c9.1-8.4,20.4-12.7,34.2-13.1l1.7,0C963.9,99.7,976,103.9,985.3,112.8"/>
		<path d="M340.1,174.9c8.7,0,11.6-2.6,11.6-6.1c0-5.3-6.9-6.8-10.7-8.1c-22.6-7.9-34.9-15.8-34.9-33.4c0-16.4,14.6-27.6,35.7-27.6
			c11.5,0,22,3,32.3,8V130c-9.3-4.7-20.4-10-31.2-10c-8.7,0-11.2,2.6-11.2,5.4c0,2.3,2.5,5.2,10.9,8.2c7.6,3,15.5,5.6,22.6,9.8
			c8.5,5.3,12.7,13.5,12.7,24c0,17.7-14.1,28.6-37.2,28.6c-12.2,0-22.5-3.3-32.9-9.6v-24.1C317.4,168.2,328.1,174.9,340.1,174.9"/>
		<path d="M787.6,196c-27.5,0-44.1-15.5-44.1-41.8V101h26.1v52.2c0,13.6,6.5,20.4,18.2,20.4c11.6,0,18-6.8,18-20.4V101h26.2v53.1
			C831.9,180.5,815.1,196,787.6,196"/>
		<polygon points="864.1,101 864.1,173.5 902.7,173.5 902.7,194.3 838,194.3 838,101 		"/>
		<path d="M427.4,95.3l-3.6-1.5c-1.7-0.8-3.5-1.3-4.6-1.4c-3.4-0.4-5.5,1.2-7,4.4l-7.6-0.9c3.4-10.7,8.8-15.5,16.5-14.6
			c1.5,0.2,3.6,0.9,5.9,1.8l1.8,0.7l4.6,1.9c1.3,0.4,2.4,0.8,3.8,1c3,0.4,5.7-1.4,7-5l7.6,0.9c-3.6,10.5-8.5,16.2-16.9,15.1
			c-1.6-0.2-3.4-0.8-5.1-1.4L427.4,95.3z"/>
		<path d="M331,77.7c-6.7,0-12.3-2.1-16.4-5.9c-4.2-4-6.5-9.6-6.5-15.9c0-12.9,9.3-21.8,23.9-21.8c5.4,0,10.4,1.3,15.7,3.8v9.3
			c-5.6-2.8-10.7-4.3-15.1-4.3c-8.5,0-13.6,4.9-13.6,13c0,7.9,4.9,13,12.8,13c2.1,0,4.1-0.4,6.2-1.3v-5.3h-5.8v-7.9h16.5V72
			C343.4,75.9,337.7,77.7,331,77.7"/>
		<path d="M360.4,40.1c4.3-4,9.6-6,16.3-6c6.7,0,12.1,2,16.4,6c4.3,4.1,6.6,9.5,6.6,15.8c0,6.3-2.3,11.7-6.6,15.7
			c-4.3,4-9.7,6-16.4,6c-6.7,0-12-2-16.3-6c-4.3-4.1-6.6-9.5-6.6-15.7C353.8,49.6,356.1,44.2,360.4,40.1 M376.7,68.8
			c7,0,12-5.3,12-12.9c0-7.6-5.1-13-12-13c-7,0-12,5.4-12,13C364.7,63.5,369.8,68.8,376.7,68.8"/>
		<polygon points="399.4,34.8 410.7,34.8 421.1,59.3 432.3,34.8 443.7,34.8 423.1,77.3 418.5,77.3 		"/>
		<polygon points="446.6,34.8 474.8,34.8 474.8,42.6 457.1,42.6 457.1,51.1 474,51.1 474,59 457.1,59 457.1,69 475.3,69 475.3,76.9 
			446.6,76.9 		"/>
		<path d="M482.2,34.8h15.6c11.3,0,16.8,3.8,16.8,12.2c0,4.6-2.3,7.9-7.3,10.2c2.1,0.8,3.8,2.6,5,5.3l6.7,14.4H507l-5.4-12.1
			c-1.7-3.8-3.5-5.1-7.7-5.1c-0.4,0-0.8,0.1-1.2,0.1v17.1h-10.5V34.8z M503.6,47.1c0-3.1-2-4.9-5.8-4.9h-5.1v9.8h5.1
			C501.8,52.1,503.6,50.5,503.6,47.1"/>
		<polygon points="532.7,76.9 522.3,76.9 522.3,34.8 531.5,34.8 554.1,59.9 554.1,34.8 564.6,34.8 564.6,76.9 556.3,76.9 
			532.7,50.5 		"/>
		<path d="M577.3,40.1c4.3-4,9.6-6,16.3-6c6.7,0,12.1,2,16.4,6c4.3,4.1,6.6,9.5,6.6,15.8c0,6.3-2.3,11.7-6.6,15.7
			c-4.3,4-9.7,6-16.4,6c-6.7,0-12-2-16.3-6c-4.3-4.1-6.6-9.5-6.6-15.7C570.7,49.6,573,44.2,577.3,40.1 M593.6,68.8
			c7,0,12-5.3,12-12.9c0-7.6-5.1-13-12-13c-7,0-12,5.4-12,13C581.6,63.5,586.6,68.8,593.6,68.8"/>
		<path d="M639.6,34.8h15.8c6.7,0,12.2,0.4,17.4,4.4c5.4,4.1,8.2,9.8,8.2,16.7c0,7.5-3.5,13.8-9.9,17.9c-4.7,3-9.7,3.2-15.7,3.2
			h-15.8V34.8z M650.1,68.4h7.8c7.2,0,12.2-5.2,12.2-12.6s-4.9-12.5-12.2-12.5h-7.8V68.4z"/>
		<path d="M691.7,40.1c4.3-4,9.6-6,16.3-6c6.7,0,12.1,2,16.4,6c4.3,4.1,6.6,9.5,6.6,15.8c0,6.3-2.3,11.7-6.6,15.7
			c-4.3,4-9.7,6-16.4,6c-6.7,0-12-2-16.3-6c-4.3-4.1-6.6-9.5-6.6-15.7C685.1,49.6,687.4,44.2,691.7,40.1 M708,68.8
			c7,0,12-5.3,12-12.9c0-7.6-5.1-13-12-13c-7,0-12,5.4-12,13C696,63.5,701,68.8,708,68.8"/>
		<polygon points="754,34.8 782.2,34.8 782.2,42.6 764.5,42.6 764.5,51.1 781.4,51.1 781.4,59 764.5,59 764.5,69 782.7,69 
			782.7,76.9 754,76.9 		"/>
		<path d="M788.7,64.2c5.3,3.3,9.6,5.3,14.4,5.3c4.1,0,6.3-1.3,6.3-3.8c0-2.5-1.9-3.3-5.6-4.6c-10.6-3.7-15.8-7.2-15.8-14.9
			c0-7,6.2-12.2,15.9-12.2c4.6,0,9.5,1.1,14.3,3.5v8.6c-5.4-2.7-9.9-4.2-13.8-4.2c-4.1,0-6.2,1.2-6.2,3.4c0,1.7,1.9,3.3,5.7,4.7
			c3.8,1.4,7.4,2.6,10.5,4.5c3.7,2.3,5.6,5.9,5.6,10.6c0,7.6-6,12.5-16.7,12.5c-5.3,0-10.1-1.4-14.6-4.1V64.2z"/>
		<polygon points="836.5,42.6 822.5,42.6 822.5,34.8 861.6,34.8 861.6,42.6 847.6,42.6 847.6,76.9 836.5,76.9 		"/>
		<path d="M875.7,34.8h12.2l16.4,42.1h-11.2l-3-8.2h-18.1l-3.4,8.2h-11.2L875.7,34.8z M887.4,61.5l-5.9-16.1L875,61.5H887.4z"/>
		<path d="M907.2,34.8H923c6.7,0,12.1,0.4,17.4,4.4c5.4,4.1,8.2,9.8,8.2,16.7c0,7.5-3.5,13.8-9.9,17.9c-4.7,3-9.7,3.2-15.7,3.2
			h-15.8V34.8z M917.7,68.4h7.8c7.2,0,12.2-5.2,12.2-12.6s-4.9-12.5-12.2-12.5h-7.8V68.4z"/>
		<path d="M959.3,40.1c4.3-4,9.6-6,16.3-6c6.7,0,12.1,2,16.4,6c4.3,4.1,6.6,9.5,6.6,15.8c0,6.3-2.3,11.7-6.6,15.7
			c-4.3,4-9.7,6-16.4,6c-6.7,0-12-2-16.3-6c-4.3-4.1-6.6-9.5-6.6-15.7C952.7,49.6,955,44.2,959.3,40.1 M975.6,68.8
			c7,0,12-5.3,12-12.9c0-7.6-5.1-13-12-13c-7,0-12,5.4-12,13C963.6,63.5,968.6,68.8,975.6,68.8"/>
	</g>
</g>
</svg>
