<svg id="Layer_1" data-name="Layer 1" xmlns="http://www.w3.org/2000/svg" viewBox="0 0 1000 446.94"><defs><style>.cls-1{fill:#fff;}.cls-2{fill:#fff;}</style></defs><title>Artboard 1</title><polygon class="cls-1" points="53.19 173.07 53.19 295.33 0 295.33 0 0 191.72 0 191.72 46.85 53.19 46.85 53.19 126.22 179.82 126.22 179.82 173.07 53.19 173.07"/><path class="cls-1" d="M999.27,219.13c0,52.39-36.15,79.79-90.55,79.79-54,0-90.08-29.77-90.08-81.77v-52c0-52,36.1-82.19,90.08-82.19,54.4,0,90.55,27.78,90.55,80.2v3.57H952.82c0-29.78-16.3-42.08-44.1-42.08-27.36,0-43.24,14.26-43.24,44.46v43.65c0,30.2,15.88,44.47,43.24,44.47,27.8,0,44.1-11.9,44.1-41.69h46.44Z"/><path class="cls-1" d="M353,295.34v-24.2L331.21,283c-19.45,10.32-34.54,15.1-55.2,15.1-37.29,0-62.31-24.22-62.31-59.55,0-43.66,34.14-63.93,77.43-63.93h62.32V162.37c0-27-15.5-40.11-42.9-40.11-28.57,0-45.25,11.91-45.25,36.5H218.46V156c0-47.26,37.33-73.85,91.71-73.85,57.17,0,90.12,28.56,90.12,78.58V295.34Zm0-86.54H297.47c-29,0-35.75,13.51-35.75,27.4,0,14.69,9.13,23.42,25,23.42,13.09,0,24.21-4,36.14-10.33L353,233Z"/><path class="cls-1" d="M538.55,295.33c-48.44,0-79.79-24.2-79.79-71.84V127H427V86.14h31.78V29.37H508V86.14h57.95V127H508v93.68c0,24.63,11.12,33,34.5,33h24.64v41.67Z"/><path class="cls-1" d="M776.82,229.45c0,42.47-36.53,69.47-91.71,69.47-54,0-92.47-29.38-92.47-80.57V168.72c0-52.81,38.49-85.76,92.47-85.76,54.4,0,92.09,31.38,92.09,86.57v36.9H638.28v10.33c0,29.78,19.84,42.88,47.21,42.88,27,0,45.28-9.53,45.28-32.16h46Zm-44.87-60.73c0-29.79-17.46-46.06-46.46-46.06-29.35,0-47.21,16.26-47.21,46.46v5.14h93.67Z"/><polygon class="cls-2" points="356.73 424.92 356.73 352.64 332.29 352.64 332.29 339.15 396.85 339.15 396.85 352.64 372.64 352.64 372.64 424.92 356.73 424.92"/><path class="cls-2" d="M436.15,424.92v-7l-6.34,3.46c-5.65,3-10,4.38-16,4.38-10.83,0-18.1-7-18.1-17.29,0-12.68,9.91-18.56,22.48-18.56h18.1V386.3c0-7.84-4.5-11.64-12.45-11.64-8.3,0-13.14,3.46-13.14,10.6H397.07v-.81c0-13.72,10.83-21.44,26.63-21.44,16.6,0,26.17,8.3,26.17,22.83v39.08Zm0-25.13H420c-8.42,0-10.38,3.92-10.38,8,0,4.26,2.65,6.8,7.27,6.8a21.57,21.57,0,0,0,10.49-3l8.76-4.73Z"/><path class="cls-2" d="M503.81,446.13v-27.9l-6.92,3.8a27.94,27.94,0,0,1-13.61,3.57c-12.56,0-20.86-8.41-20.86-20.75v-20.4c0-12.34,8.53-21.1,21.09-21.1a27.7,27.7,0,0,1,13.38,3.58l7,3.8v-6.58h13.6v82Zm0-62.48-9.68-5.42a17.47,17.47,0,0,0-8.53-2.31c-5.76,0-9.57,3.92-9.57,9.92v17.29c0,6,3.8,9.92,9.57,9.92a16.34,16.34,0,0,0,8.53-2.43l9.68-5.3Z"/><path class="cls-2" d="M570.77,424.92v-7l-6.45,3.8a24.8,24.8,0,0,1-13.49,3.92c-11.87,0-19.13-8-19.13-19.71V364.16h14.06v40c0,5.3,3.11,8.87,8.07,8.87,3,0,5.42-1.15,8-2.65l8.88-5.19v-41H584.6v60.75Z"/><path class="cls-2" d="M637.28,424.92v-7l-6.34,3.46c-5.65,3-10,4.38-16,4.38-10.83,0-18.1-7-18.1-17.29,0-12.68,9.91-18.56,22.48-18.56h18.1V386.3c0-7.84-4.5-11.64-12.45-11.64-8.3,0-13.14,3.46-13.14,10.6H598.2v-.81C598.2,370.74,609,363,624.83,363c16.6,0,26.16,8.3,26.16,22.83v39.08Zm0-25.13H621.14c-8.41,0-10.37,3.92-10.37,8,0,4.26,2.65,6.8,7.26,6.8a21.61,21.61,0,0,0,10.49-3l8.76-4.73Z"/><path class="cls-2" d="M664.82,424.92V364.16h14v8.65l2.65-2.66c4.5-4.26,9-6.45,15-6.45H700v14.18h-3.46c-5.3,0-8.76,1-12.79,4.15L679,386v39Z"/><path class="cls-2" d="M724.29,347.79c0,4.26-3.34,6.57-8,6.57s-8-2.31-8-6.57v-2.53c0-4.39,3.46-6.69,8-6.69s8,2.31,8,6.69Zm-15.1,16.37h14.3v60.75h-14.3Z"/><path class="cls-2" d="M765.67,424.92c-14.07,0-23.17-7-23.17-20.86V376h-9.22V364.16h9.22V347.68h14.3v16.48h16.83V376H756.8v27.2c0,7.15,3.23,9.57,10,9.57H774v12.11Z"/><path class="cls-2" d="M800.25,347.79c0,4.26-3.35,6.57-8,6.57s-8-2.31-8-6.57v-2.53c0-4.39,3.46-6.69,8-6.69s8,2.31,8,6.69Zm-15.1,16.37h14.29v60.75H785.15Z"/><path class="cls-2" d="M853,424.92V385c0-4.61-2.54-9-8.07-9-3.11,0-5.42,1.15-8,2.65l-8.88,5.3v40.92H814.19V364.16H828v7.15l6.46-3.92A25.14,25.14,0,0,1,848,363.47c11.87,0,19.13,8,19.13,19.71v41.73Z"/><path class="cls-2" d="M893.38,402.9c-2.77,0-4.15,1.27-4.15,4,0,2.43,1.5,3.81,3.92,3.81h23.52c14.06,0,21.78,5.42,21.78,16.71,0,12.68-11.41,19.48-27.9,19.48-18.67,0-27.09-8.42-27.09-23.06v-6.11c-3.8-1.73-6-5.19-6-10.84,0-6.56,3.46-10.49,8.19-11.76,0,0-4.38-3.46-4.38-11.53,0-12.91,9-19.48,22.37-19.48H938.8v11.76h-8.65s3,2.43,3,8.3c0,11.64-8.53,18.67-22,18.67Zm15.8-10.14c7.38,0,11.53-2.77,11.53-9,0-6-3.8-8.87-10.38-8.87H905c-6.57,0-10.6,2.07-10.6,9.11,0,6.11,3.8,8.76,10.37,8.76ZM895.91,421v2.54c0,8.3,3.46,12.91,14.41,12.91,9.69,0,14.76-2.65,14.76-8.64,0-5.19-4-6.8-10.37-6.8Z"/><path class="cls-2" d="M986.28,424.92v-7l-6.34,3.46c-5.65,3-10,4.38-16,4.38-10.83,0-18.1-7-18.1-17.29,0-12.68,9.91-18.56,22.48-18.56h18.1V386.3c0-7.84-4.5-11.64-12.45-11.64-8.3,0-13.14,3.46-13.14,10.6H947.2v-.81C947.2,370.74,958,363,973.83,363c16.6,0,26.17,8.3,26.17,22.83v39.08Zm0-25.13H970.14c-8.41,0-10.37,3.92-10.37,8,0,4.26,2.65,6.8,7.27,6.8a21.59,21.59,0,0,0,10.49-3l8.76-4.73Z"/></svg>